{
  "asset" : {
    "generator" : "me.bokov.bsc",
    "version" : "2.0"
  },
  "scene" : 0,
  "buffers" : [ {
    "uri" : "cube-minus-sphere.gltf.bin",
    "byteLength" : 180480
  }, {
    "uri" : "cube-minus-sphere.gltf.ibin",
    "byteLength" : 18048
  } ],
  "scenes" : [ {
    "nodes" : [ 0 ]
  } ],
  "nodes" : [ {
    "mesh" : 0
  } ],
  "meshes" : [ {
    "primitives" : [ {
      "attributes" : {
        "COLOR_0" : 2,
        "POSITION" : 0,
        "NORMAL" : 1
      },
      "indices" : 3,
      "mode" : 4
    } ],
    "name" : "Exported"
  } ],
  "accessors" : [ {
    "bufferView" : 0,
    "byteOffset" : 0,
    "componentType" : 5126,
    "count" : 4512,
    "min" : [ -10000.0, -10000.0, -10000.0 ],
    "max" : [ 10000.0, 10000.0, 10000.0 ],
    "type" : "VEC3"
  }, {
    "bufferView" : 1,
    "byteOffset" : 0,
    "componentType" : 5126,
    "count" : 4512,
    "min" : [ -1.0, -1.0, -1.0 ],
    "max" : [ 1.0, 1.0, 1.0 ],
    "type" : "VEC3"
  }, {
    "bufferView" : 2,
    "byteOffset" : 0,
    "componentType" : 5126,
    "count" : 4512,
    "min" : [ 0.0, 0.0, 0.0, 0.0 ],
    "max" : [ 1.0, 1.0, 1.0, 1.0 ],
    "type" : "VEC4"
  }, {
    "bufferView" : 3,
    "byteOffset" : 0,
    "componentType" : 5125,
    "count" : 4512,
    "min" : [ 0 ],
    "max" : [ 4511 ],
    "type" : "SCALAR"
  } ],
  "bufferViews" : [ {
    "buffer" : 0,
    "byteOffset" : 0,
    "byteLength" : 180480,
    "byteStride" : 40,
    "target" : 34962
  }, {
    "buffer" : 0,
    "byteOffset" : 12,
    "byteLength" : 180468,
    "byteStride" : 40,
    "target" : 34962
  }, {
    "buffer" : 0,
    "byteOffset" : 24,
    "byteLength" : 180456,
    "byteStride" : 40,
    "target" : 34962
  }, {
    "buffer" : 1,
    "byteOffset" : 0,
    "byteLength" : 18048,
    "target" : 34963
  } ]
}